<svg xmlns="http://www.w3.org/2000/svg" xmlns:xlink="http://www.w3.org/1999/xlink" width="60" height="60" viewBox="0 0 60 60"><defs><radialGradient id="a" cx="0.5" cy="0.5" r="0.5" gradientUnits="objectBoundingBox"><stop offset="0" stop-color="#00103d" stop-opacity="0"/><stop offset="0.118" stop-color="#00103d" stop-opacity="0"/><stop offset="0.448" stop-color="#eb3f43"/><stop offset="0.632" stop-color="#eb3f43"/><stop offset="1" stop-color="#eb3f43"/></radialGradient></defs><g transform="translate(-615 -5846)"><circle cx="30" cy="30" r="30" transform="translate(615 5846)" fill="#001655"/><g transform="translate(627.364 5858.364)"><path d="M188.275,1253.978a17.636,17.636,0,1,1,11.067-31.4,3.737,3.737,0,0,1-.159,5.947h0a3.726,3.726,0,0,1-4.505-.1,10.152,10.152,0,1,0,3.8,7.915h7.481A17.657,17.657,0,0,1,188.275,1253.978Z" transform="translate(-170.683 -1218.705)" fill="url(#a)"/><path d="M326.769,51.975a3.75,3.75,0,1,0,3.75-3.75,3.75,3.75,0,0,0-3.75,3.75" transform="translate(-304.22 -45.198)" fill="#ed5356"/></g></g></svg>