<svg xmlns="http://www.w3.org/2000/svg" width="60" height="60" viewBox="0 0 60 60"><g transform="translate(-615 -5846)"><circle cx="30" cy="30" r="30" transform="translate(615 5846)" fill="#ffe270"/><g transform="translate(11729.775 -5430.803)"><path d="M3.824,26.939H0V10l16.476.042a7.972,7.972,0,0,0-1.31.81,7.326,7.326,0,0,0-1.292,1.272,6.733,6.733,0,0,0-.786,1.255H3.824V17.23l8.525.017L12.3,20.515H3.824v6.425Z" transform="translate(-11099.375 11288.622)" fill="#0c0c0f"/><path d="M3.824,27.439H-.5V9.5l16.977.043.22.948a7.471,7.471,0,0,0-1.228.759,6.825,6.825,0,0,0-1.2,1.185,6.233,6.233,0,0,0-.727,1.161l-.136.283H4.324v2.852l8.532.017L12.8,21.015H4.324v6.425Zm-3.324-1H3.324V20.015h8.487l.031-2.269-8.518-.017v-4.85h9.458a7.276,7.276,0,0,1,.7-1.065,7.824,7.824,0,0,1,1.275-1.277L.5,10.5Z" transform="translate(-11099.375 11288.622)" fill="rgba(0,0,0,0)"/><path d="M7.958,0A7.785,7.785,0,0,0,3.835,1.1,7.489,7.489,0,0,0,1.011,4.2,10.064,10.064,0,0,0,0,8.8a9.811,9.811,0,0,0,1.011,4.49A7.608,7.608,0,0,0,3.957,16.45a8.76,8.76,0,0,0,4.579,1.156,9.138,9.138,0,0,0,3.779-.767,7.311,7.311,0,0,0,2.8-2.145,6.4,6.4,0,0,0,1.334-3.157H12.315A3.218,3.218,0,0,1,11,13.5a4.166,4.166,0,0,1-2.468.722,4.027,4.027,0,0,1-2.323-.689,4.664,4.664,0,0,1-1.589-1.912A6.535,6.535,0,0,1,4.046,8.8a6.33,6.33,0,0,1,.6-2.823A4.46,4.46,0,0,1,8.8,3.4a4.65,4.65,0,0,1,2.067.456,3.757,3.757,0,0,1,1.5,1.3,3.428,3.428,0,0,1,.567,1.956h1.045A8.9,8.9,0,0,0,13.227,3.3,5.584,5.584,0,0,0,11.1.845,5.861,5.861,0,0,0,7.958,0Zm5.135,7.847,1.8-1.156H8.714V9.737h7.869L16.717,0h-3.49Z" transform="translate(-11070.176 11315.606) rotate(180)" fill="#0c0c0f"/></g></g></svg>