<svg xmlns="http://www.w3.org/2000/svg" width="115.145" height="132.09" viewBox="0 0 115.145 132.09"><g transform="translate(-902.671 -7405.91)"><path d="M2454.225-2919.227a1.5,1.5,0,0,1-1.3-.756c-.167-.292-1.606-3.036-.636-9.233a50.346,50.346,0,0,1,3.652-11.868,115.436,115.436,0,0,1,9.853-17.715,66.806,66.806,0,0,1,9.97-11.6,63.49,63.49,0,0,1-26.689-7.807c-10.709-6.065-16.815-14.034-18.147-23.686a36.069,36.069,0,0,1,1.79-16.145,64.476,64.476,0,0,1,6.765-14.047,87.247,87.247,0,0,1,10.7-13.814,1.5,1.5,0,0,1,2.121-.009,1.5,1.5,0,0,1,.009,2.121,85.9,85.9,0,0,0-10.326,13.352c-4.477,7.149-9.513,17.835-8.088,28.139,1.2,8.673,6.8,15.9,16.653,21.478a61.641,61.641,0,0,0,28.32,7.624q1.163-1,2.39-1.988a128.754,128.754,0,0,1,19.913-13.048c13.243-7.1,27.4-12.03,36.073-12.549a16.833,16.833,0,0,1,4.492.242,5.749,5.749,0,0,1,3.262,1.745,3.441,3.441,0,0,1,.643,3.264,8.529,8.529,0,0,1-1.766,3.115,29.761,29.761,0,0,1-5.52,4.9,71.291,71.291,0,0,1-8.494,5.162,110.421,110.421,0,0,1-23.671,8.978,97.172,97.172,0,0,1-26.2,3.18,67.365,67.365,0,0,0-11.7,13.044c-9.307,14.052-12.229,23.194-13.042,28.389-.8,5.107.266,7.261.277,7.28a1.5,1.5,0,0,1-.558,2.047A1.492,1.492,0,0,1,2454.225-2919.227Zm84.459-78.591c-.384,0-.8.012-1.26.04-8.271.495-21.944,5.283-34.834,12.2a126.116,126.116,0,0,0-19.059,12.428,97.9,97.9,0,0,0,21.919-3.12,107.364,107.364,0,0,0,23.021-8.729c6.042-3.165,10.815-6.561,13.094-9.317a5.552,5.552,0,0,0,1.178-1.972c.1-.395.011-.505-.029-.552C2542.5-2997.09,2541.631-2997.818,2538.684-2997.818Z" transform="translate(-1527.977 10452.247)" fill="#fff"/><circle cx="5" cy="5" r="5" transform="translate(921 7528)" fill="#fff"/></g></svg>