<svg xmlns="http://www.w3.org/2000/svg" width="126.935" height="181.875" viewBox="0 0 126.935 181.875">
  <g transform="translate(-770.86 -150.193)">
    <path id="Path_121137" data-name="Path 121137" d="M-12-22.638a1.782,1.782,0,0,1,1.421.2,1.843,1.843,0,0,1,.833,1.176,1.92,1.92,0,0,1-.2,1.47q-3.234,5.194-6.174,9.261t-5.047,6.566A39.022,39.022,0,0,1-25.235.245,26.737,26.737,0,0,1-28.371,2.7a7.224,7.224,0,0,1-2.352.98,6.19,6.19,0,0,1-1.617.2q-.441-.049-1.029-.147-4.606-1.176-5.194-10.486a16.177,16.177,0,0,0-.49-3.479,7.551,7.551,0,0,0-.686-1.862q-.294-.441-.49-.441h-.1a3.875,3.875,0,0,0-2.156,1.225A25.016,25.016,0,0,0-45.815-7.35,67.7,67.7,0,0,0-49.931-.686q-2.156,3.92-4.753,9.9t-5.047,12.936a1.674,1.674,0,0,1-1.764,1.274h-.392a1.8,1.8,0,0,1-.833-.392,2.047,2.047,0,0,1-.539-.735,1.262,1.262,0,0,1-.1-.833q.2-4.018,5.145-25.823t8.134-35.084q3.185-13.279,4.949-20.335a132.237,132.237,0,0,1,7.693-23.079q4.361-9.555,7.5-10.143a2.352,2.352,0,0,1,2.548.98q2.156,2.94-2.5,15.19A243.515,243.515,0,0,1-44.345-46.844Q-51.891-15.778-56.007,3.038a76.34,76.34,0,0,1,8.526-14.455q4.214-5.341,7.742-4.851,4.41.588,4.9,9.212Q-34.349-.49-32.487,0a1.757,1.757,0,0,0,.833,0,8.6,8.6,0,0,0,2.2-1.176,20.01,20.01,0,0,0,3.626-3.185q1.96-2.107,5.341-6.615t7.3-10.878A1.9,1.9,0,0,1-12-22.638Zm-18.62-64.876q-5.39,7.742-10.094,25.578Q-32.095-79.282-30.625-87.514ZM17-22.2a1.814,1.814,0,0,1,1.421.294,1.678,1.678,0,0,1,.735,1.225,1.956,1.956,0,0,1-.294,1.372Q7.791-3.822-1.323,2.646A12.431,12.431,0,0,1-8.477,5.194a8.047,8.047,0,0,1-4.8-1.47,8.729,8.729,0,0,1-2.107-2.352A14.752,14.752,0,0,1-17-2.744,20.328,20.328,0,0,1-17.248-9.7a48.739,48.739,0,0,1,2.205-9.8v-.1A45.843,45.843,0,0,1-8.379-33.712Q-4.459-38.906-1.323-39a2.676,2.676,0,0,1,2.94,1.96Q2.695-34.2-.931-29.008A61.352,61.352,0,0,1-11.613-17.836a49.294,49.294,0,0,0-1.666,7.056,23.925,23.925,0,0,0-.343,5.145A12.005,12.005,0,0,0-12.936-2.3a8.769,8.769,0,0,0,.98,2.009,5.37,5.37,0,0,0,.931.98Q-8.085,2.842-3.479-.49,5.145-6.566,15.729-21.462A2.111,2.111,0,0,1,17-22.2ZM-2.009-34.888q-3.43,2.156-6.762,9.31Q-3.087-31.262-2.009-34.888ZM60.515-22.393a1.844,1.844,0,0,1,1.225.784,1.674,1.674,0,0,1,.245,1.421,1.9,1.9,0,0,1-.784,1.176Q43.855-7.742,32.781,3.43,27,38.024,20.139,59.584,12,84.966,4.361,87.122a5.329,5.329,0,0,1-1.47.2,5.009,5.009,0,0,1-3.92-1.96Q-3.773,81.83-4.018,73.7A71.322,71.322,0,0,1-1.47,54.488,100.1,100.1,0,0,1,6.615,33.124,135.01,135.01,0,0,1,29.351,1.568q1.47-9.212,2.94-19.306A82.877,82.877,0,0,1,26.607-10Q22.295-4.7,18.375-7.056q-3.234-1.96-3.43-8.183a33,33,0,0,1,2.842-13.573,1.79,1.79,0,0,1,1.029-.98,1.79,1.79,0,0,1,1.421,0,2,2,0,0,1,1.029.98,1.769,1.769,0,0,1,.049,1.47q-2.646,7.154-2.6,11.662t1.617,5.39q1.078.686,3.332-2.058a106.364,106.364,0,0,0,10.094-14.9,1.676,1.676,0,0,1,2.254-.833,1.723,1.723,0,0,1,1.274,2.009q-1.666,12.25-3.43,23.226A186.652,186.652,0,0,1,59.143-22.148,1.787,1.787,0,0,1,60.515-22.393Zm-44,80.9q6.272-19.6,11.662-50.078A126.734,126.734,0,0,0,9.947,34.888,91.784,91.784,0,0,0,3.234,51.3,77.74,77.74,0,0,0,.147,65.954a54.485,54.485,0,0,0-.1,10.78q.49,4.508,1.862,6.174a1.332,1.332,0,0,0,1.372.588,3.092,3.092,0,0,0,1.078-.49A12.565,12.565,0,0,0,6.321,81a24.934,24.934,0,0,0,2.744-4.116q1.372-2.5,3.43-7.3A116.606,116.606,0,0,0,16.513,58.506Z" transform="translate(835 244)" fill="#ffcc7d"/>
    <path id="Path_121137_-_Outline" data-name="Path 121137 - Outline" d="M-29.342-93.807a3.01,3.01,0,0,1,2.562,1.35c.846,1.161,1.036,3.066.582,5.824a55.482,55.482,0,0,1-2.991,10.067,245.037,245.037,0,0,1-14.451,30c-4.251,17.5-7.72,32.239-10.339,43.922a64.516,64.516,0,0,1,5.909-9.234A18.487,18.487,0,0,1-44.189-15.7a6.862,6.862,0,0,1,3.852-1.354,5.112,5.112,0,0,1,.7.048,5.212,5.212,0,0,1,3.989,2.988A17.167,17.167,0,0,1-34.091-7.1c.418,5.591,1.479,6.3,1.794,6.379l.046.014a.456.456,0,0,0,.118.01,1.984,1.984,0,0,0,.344-.037,7.756,7.756,0,0,0,1.932-1.068,19.378,19.378,0,0,0,3.484-3.066c1.283-1.379,3.063-3.584,5.29-6.554,1.563-2.084,3.238-4.506,4.979-7.2.1-.327.2-.661.31-1v-.094l.033-.108A46.786,46.786,0,0,1-8.978-34.164c2.781-3.685,5.276-5.514,7.627-5.59A3.412,3.412,0,0,1,2.324-37.3c.811,2.16-.053,5.012-2.64,8.717a59.864,59.864,0,0,1-9.777,10.426c-.4.634-.8,1.263-1.2,1.87a46.186,46.186,0,0,0-1.247,5.615,23.337,23.337,0,0,0-.337,4.975,11.319,11.319,0,0,0,.639,3.124,7.86,7.86,0,0,0,.879,1.825,4.668,4.668,0,0,0,.788.835A3.475,3.475,0,0,0-8.458.783,8.211,8.211,0,0,0-3.919-1.1l.008-.005C1.631-5.008,7.9-11.81,14.708-21.323A40.326,40.326,0,0,1,17.094-29.1l0-.009a2.523,2.523,0,0,1,1.44-1.381,2.549,2.549,0,0,1,1.995.007,2.745,2.745,0,0,1,1.4,1.334,2.532,2.532,0,0,1,.08,2.069c-1.723,4.658-2.581,8.491-2.549,11.391.039,3.545.79,4.494,1.235,4.744l.035.021a.125.125,0,0,0,.076.02c.116,0,.772-.093,2.274-1.921l0,0a106.133,106.133,0,0,0,10.02-14.79,2.388,2.388,0,0,1,2.129-1.361,3.012,3.012,0,0,1,1.033.2,2.46,2.46,0,0,1,1.759,2.812c-1,7.352-2.039,14.445-3.094,21.122A194.447,194.447,0,0,1,58.731-22.775a2.536,2.536,0,0,1,1.922-.355,2.578,2.578,0,0,1,1.7,1.094,2.433,2.433,0,0,1,.356,2.03,2.638,2.638,0,0,1-1.1,1.618l-.007,0A172.385,172.385,0,0,0,33.481,3.789C29.649,26.673,25.4,45.52,20.854,59.811,15.3,77.15,9.969,86.319,4.565,87.844a6.1,6.1,0,0,1-1.674.224A5.748,5.748,0,0,1-1.6,85.844l-.021-.025a13.485,13.485,0,0,1-2.254-4.954,33.276,33.276,0,0,1-.893-7.146A72.393,72.393,0,0,1-2.2,54.3,101.325,101.325,0,0,1,5.948,32.781l0-.006A141.013,141.013,0,0,1,16.345,15.928a132.976,132.976,0,0,1,12.3-14.712c.805-5.052,1.62-10.364,2.427-15.832-1.36,1.935-2.663,3.643-3.891,5.1-2.129,2.611-4.268,3.935-6.36,3.935a5.472,5.472,0,0,1-2.835-.831c-1.8-1.09-2.967-3.046-3.489-5.829C9.006-5.3,3.835-.095-.889,3.258A13.22,13.22,0,0,1-8.477,5.944a8.818,8.818,0,0,1-5.238-1.61l-.014-.01A9.513,9.513,0,0,1-16.02,1.773a15.539,15.539,0,0,1-1.709-4.329,16.178,16.178,0,0,1-.44-3.963c-.883,1.152-1.7,2.167-2.425,3.033A39.956,39.956,0,0,1-24.741.809a27.158,27.158,0,0,1-3.232,2.522,8,8,0,0,1-2.6,1.078,8.495,8.495,0,0,1-1.6.22,2.25,2.25,0,0,1-.25-.013c-.306-.034-.666-.085-1.069-.153l-.031-.005-.031-.008a6.314,6.314,0,0,1-4.088-3.6,20.3,20.3,0,0,1-1.669-7.562v-.012a15.52,15.52,0,0,0-.464-3.315,6.646,6.646,0,0,0-.587-1.645c-.025-.038-.047-.069-.066-.094a4,4,0,0,0-1.554,1.022A24.451,24.451,0,0,0-45.2-6.914,67.28,67.28,0,0,0-49.274-.325c-1.42,2.581-3.008,5.89-4.722,9.835s-3.4,8.278-5.023,12.873a2.419,2.419,0,0,1-2.476,1.788h-.466l-.073-.015a2.544,2.544,0,0,1-1.174-.558,2.8,2.8,0,0,1-.736-1,2.015,2.015,0,0,1-.158-1.24c.157-2.816,1.846-11.287,5.159-25.887C-55.659-19-52.922-30.8-50.807-39.62s3.779-15.656,4.951-20.342A133.589,133.589,0,0,1-38.118-83.17a43.019,43.019,0,0,1,4.134-7.448c1.379-1.866,2.657-2.887,3.907-3.121h.008A4.2,4.2,0,0,1-29.342-93.807ZM-55.329,3.359l-1.411-.481c2.732-12.491,6.657-29.279,11.666-49.9l.024-.1.049-.088A243.963,243.963,0,0,0-30.591-77.1a54.073,54.073,0,0,0,2.913-9.778c.474-2.882.089-4.148-.318-4.7l-.012-.017a1.512,1.512,0,0,0-1.334-.712,2.7,2.7,0,0,0-.462.043c-.584.111-1.572.642-2.974,2.538a41.6,41.6,0,0,0-3.976,7.179A132.119,132.119,0,0,0-44.4-59.6c-1.171,4.683-2.835,11.523-4.948,20.331S-54.2-18.66-57.481-4.195c-3.274,14.426-5,23.071-5.127,25.694l0,.074-.018.072a.5.5,0,0,0,.056.346,1.3,1.3,0,0,0,.342.47,1.016,1.016,0,0,0,.427.211h.31a.934.934,0,0,0,1.047-.745l.009-.029c1.632-4.634,3.336-9,5.067-12.986s3.342-7.339,4.784-9.961a68.757,68.757,0,0,1,4.163-6.739,25.453,25.453,0,0,1,3.443-4.093,4.373,4.373,0,0,1,2.655-1.416h.1a1.47,1.47,0,0,1,1.114.775,7.25,7.25,0,0,1,.785,2.079A16.982,16.982,0,0,1-37.814-6.8c.367,5.791,1.915,9.085,4.6,9.792.363.06.685.106.956.136a.79.79,0,0,0,.085,0,7.041,7.041,0,0,0,1.3-.188,6.513,6.513,0,0,0,2.107-.882,26.193,26.193,0,0,0,3.04-2.378,38.467,38.467,0,0,0,3.987-4.133c1.061-1.259,2.3-2.844,3.69-4.714.017-.2.037-.406.058-.611a39.57,39.57,0,0,1,.718-4.382q-1.343,1.95-2.606,3.634c-2.259,3.012-4.073,5.258-5.392,6.676a20.837,20.837,0,0,1-3.768,3.3A7.774,7.774,0,0,1-31.52.738,3.417,3.417,0,0,1-32.132.8,1.872,1.872,0,0,1-32.7.719c-.879-.242-1.54-1.057-2.018-2.491A22.443,22.443,0,0,1-35.587-7v-.013a15.773,15.773,0,0,0-1.383-6.305,3.747,3.747,0,0,0-2.867-2.206,3.623,3.623,0,0,0-.5-.035c-1.938,0-4.144,1.55-6.555,4.607A75.978,75.978,0,0,0-55.329,3.359Zm46.36-24.537a53.165,53.165,0,0,0,7.423-8.259c2.256-3.231,3.084-5.7,2.462-7.341l-.01-.029a1.9,1.9,0,0,0-2.027-1.452c-.055,0-.112,0-.169,0H-1.3c-1.843.058-4.023,1.738-6.481,4.994a40.29,40.29,0,0,0-5.339,10.3,2.921,2.921,0,0,1,.933-.405,2.536,2.536,0,0,1,2,.285,2.577,2.577,0,0,1,1.168,1.633Q-8.99-21.312-8.969-21.179ZM18.961-22.44q.628-2.4,1.651-5.163a1.032,1.032,0,0,0-.016-.874,1.25,1.25,0,0,0-.654-.626,1.035,1.035,0,0,0-.847.007,1.046,1.046,0,0,0-.616.575,41.1,41.1,0,0,0-1.891,5.651q.136-.038.278-.065a2.836,2.836,0,0,1,.521-.05,2.531,2.531,0,0,1,1.465.464Q18.907-22.481,18.961-22.44ZM32.772-.8l.347-2.158c1.169-7.277,2.323-15.085,3.427-23.208.07-.523-.038-.928-.789-1.2a1.53,1.53,0,0,0-.516-.106c-.224,0-.521.069-.828.607a107.627,107.627,0,0,1-10.167,15C22.862-10.187,21.771-9.4,20.813-9.4a1.615,1.615,0,0,1-.863-.243c-1.3-.744-1.946-2.715-1.982-6.026q-.006-.559.028-1.159c-.746,1.014-1.486,2-2.215,2.946.3,3.091,1.306,5.171,2.982,6.187a3.939,3.939,0,0,0,2.061.615c1.62,0,3.37-1.14,5.2-3.387l.008-.01a82.53,82.53,0,0,0,5.631-7.671l1.368.521c-.976,6.7-1.965,13.2-2.942,19.316l-.037.234-.165.17A134.9,134.9,0,0,0,7.281,33.469a99.825,99.825,0,0,0-8.024,21.2,70.927,70.927,0,0,0-2.526,19c.157,5.225,1.107,9,2.821,11.211a4.253,4.253,0,0,0,3.338,1.683A4.606,4.606,0,0,0,4.155,86.4c2.343-.661,4.805-3.222,7.322-7.614,2.591-4.523,5.265-11.06,7.948-19.432C23.965,45.084,28.21,26.226,32.041,3.306l.039-.235.168-.169c7.385-7.45,16.987-15.034,28.54-22.54a1.158,1.158,0,0,0,.469-.731.925.925,0,0,0-.134-.812,1.1,1.1,0,0,0-.747-.474,1.5,1.5,0,0,0-.275-.027.936.936,0,0,0-.543.159l-.007,0A186.792,186.792,0,0,0,34.37-2.293ZM-10.592-20.179a1.17,1.17,0,0,0,.113-.905,1.1,1.1,0,0,0-.5-.719,1.039,1.039,0,0,0-.846-.107,1.161,1.161,0,0,0-.727.462c-.737,1.2-1.469,2.361-2.178,3.46a50.775,50.775,0,0,0-1.5,6.313c1.149-1.614,2.343-3.371,3.556-5.236.108-.377.223-.762.341-1.146l.065-.21.167-.142c.288-.244.575-.49.855-.733C-11.027-19.482-10.809-19.831-10.592-20.179Zm28.839.448a1.224,1.224,0,0,0,.168-.854.928.928,0,0,0-.418-.7,1.07,1.07,0,0,0-.856-.173,1.372,1.372,0,0,0-.819.458l-.2.28a26.983,26.983,0,0,0-.438,4.486C16.531-17.361,17.388-18.531,18.247-19.731Zm-4.008,5.39c-.02-.285-.034-.578-.043-.874a26.014,26.014,0,0,1,.08-2.965A123.865,123.865,0,0,1,6.044-8.108,58.7,58.7,0,0,1-3.043.12,9.606,9.606,0,0,1-8.458,2.283a4.993,4.993,0,0,1-3.011-.992l-.025-.019A6.143,6.143,0,0,1-12.556.156a9.334,9.334,0,0,1-1.081-2.193,12.8,12.8,0,0,1-.733-3.54,24.747,24.747,0,0,1,.349-5.315q.13-.857.308-1.76-.916,1.333-1.8,2.557c-.367.508-.729,1-1.078,1.476a18.056,18.056,0,0,0,.314,5.687,14.108,14.108,0,0,0,1.525,3.9,8.034,8.034,0,0,0,1.917,2.148A7.35,7.35,0,0,0-8.477,4.444,11.76,11.76,0,0,0-1.754,2.032C3.111-1.42,8.491-6.928,14.239-14.341Zm-45.479-73.6,1.354.56a58.815,58.815,0,0,1-3.3,10.654c-1.682,4.263-3.991,9.352-6.862,15.126l-1.4-.525a139.754,139.754,0,0,1,4.9-15.4A51.825,51.825,0,0,1-31.241-87.943Zm-6.142,17.249A115.562,115.562,0,0,0-32.71-82.466,85.338,85.338,0,0,0-37.383-70.694ZM-.723-36.582l-.567,1.908c-.762,2.563-3.035,5.711-6.951,9.627l-1.21-.847c2.3-4.949,4.609-8.1,7.043-9.628ZM29.37,5.979l-.456,2.579C25.331,28.814,21.4,45.695,17.228,58.732a117.889,117.889,0,0,1-4.044,11.143c-1.375,3.209-2.54,5.687-3.462,7.367a25.789,25.789,0,0,1-2.83,4.24A11.565,11.565,0,0,1,4.777,83.63a3.818,3.818,0,0,1-1.319.6,1.745,1.745,0,0,1-.45.06A2.223,2.223,0,0,1,1.347,83.4l-.015-.017C.313,82.147-.351,80-.7,76.815A55.48,55.48,0,0,1-.6,65.884a78.843,78.843,0,0,1,3.115-14.8A92.965,92.965,0,0,1,9.283,34.54,128.069,128.069,0,0,1,27.618,7.926ZM3.009,82.785a.247.247,0,0,0,.068-.01l.059-.014a2.386,2.386,0,0,0,.809-.379,11.381,11.381,0,0,0,1.8-1.87A24.313,24.313,0,0,0,8.408,76.52c.9-1.637,2.042-4.071,3.4-7.235a116.406,116.406,0,0,0,3.991-11l0,0c3.969-12.4,7.722-28.318,11.165-47.337A127.343,127.343,0,0,0,10.612,35.234a91.472,91.472,0,0,0-6.66,16.283A77.373,77.373,0,0,0,.894,66.024a54.008,54.008,0,0,0-.1,10.629c.308,2.835.876,4.776,1.688,5.769A.9.9,0,0,0,3.009,82.785Z" transform="translate(835 244)" fill="#ffcc7d"/>
  </g>
</svg>
